<svg width="36" height="36" viewBox="0 0 36 36" fill="none" xmlns="http://www.w3.org/2000/svg">
<g clip-path="url(#clip0_73_113)">
<path d="M10.8473 6.75C11.8557 6.75 12.7876 6.82875 13.6429 7.065C14.496 7.2225 15.1982 7.551 15.8217 7.94475C16.4451 8.3385 16.9089 8.90325 17.2239 9.6255C17.5301 10.3455 17.6964 11.2252 17.6964 12.1837C17.6964 13.2997 17.4645 14.2583 16.9176 14.9783C16.4473 15.6983 15.6795 16.3417 14.7367 16.8165C16.0623 17.2125 17.0707 17.9325 17.6854 18.891C18.3001 19.8495 18.6939 21.0442 18.6939 22.4077C18.6939 23.5237 18.4642 24.4823 18.0704 25.2833C17.6791 26.0905 17.0894 26.7785 16.3598 27.279C15.6598 27.7627 14.8045 28.1565 13.8726 28.395C12.9599 28.6436 12.0211 28.7766 11.077 28.791L0.666666 28.8068V6.75H10.8473ZM10.2239 15.7005C11.077 15.7005 11.777 15.4642 12.3173 15.0592C12.8554 14.6542 13.0939 13.941 13.0939 13.0635C13.0939 12.5775 13.0173 12.105 12.8642 11.7877C12.697 11.4672 12.4568 11.1931 12.1642 10.989C11.8473 10.81 11.508 10.6768 11.1557 10.593C10.7707 10.5143 10.377 10.5142 9.91542 10.5142H5.41354V15.7117C5.41354 15.7005 10.2239 15.7005 10.2239 15.7005ZM10.4535 25.1347C10.9239 25.1347 11.3854 25.056 11.7792 24.9772C12.1642 24.8985 12.5579 24.7388 12.8642 24.4913C13.1704 24.2438 13.411 24.0075 13.6429 23.6137C13.796 23.2177 13.9492 22.734 13.9492 22.1715C13.9492 21.0555 13.6429 20.2545 13.0173 19.692C12.3939 19.2082 11.5385 18.972 10.5301 18.972H5.41354V25.1235H10.4557L10.4535 25.1347ZM25.4554 25.056C26.0796 25.6965 27.0115 26.016 28.251 26.0145C29.1042 26.0145 29.8829 25.776 30.5085 25.371C31.1298 24.891 31.5162 24.411 31.6679 23.931H35.4742C34.8485 25.8457 33.9167 27.2093 32.6785 28.089C31.4404 28.8878 29.9595 29.3625 28.1723 29.3625C27.0293 29.3696 25.8955 29.152 24.832 28.7213C23.8732 28.3574 23.0182 27.7525 22.3448 26.9617C21.6247 26.2262 21.0901 25.321 20.7873 24.3247C20.4045 23.2875 20.2404 22.1715 20.2404 20.8867C20.2404 19.692 20.3935 18.5647 20.7873 17.5275C21.181 16.4925 21.7192 15.6105 22.4214 14.8118C23.1214 14.0918 23.9767 13.4483 24.9085 13.0523C25.9473 12.6258 27.056 12.4081 28.1745 12.411C29.5001 12.411 30.6617 12.6472 31.6701 13.2097C32.6764 13.7722 33.4573 14.4067 34.0807 15.3652C34.7042 16.2427 35.1657 17.28 35.4829 18.3983C35.636 19.5143 35.7126 20.6392 35.636 21.915H24.3704C24.3704 23.22 24.8298 24.4125 25.4554 25.056ZM30.3554 16.659C29.8085 16.0965 28.951 15.7793 27.9426 15.7793C27.2426 15.7793 26.7045 15.9368 26.2342 16.1753C25.7639 16.4138 25.4554 16.7377 25.1492 17.0527C24.8636 17.3618 24.6733 17.7509 24.6023 18.171C24.5235 18.5648 24.4492 18.891 24.4492 19.206H31.4404C31.2873 18.0225 30.8957 17.2215 30.3554 16.659ZM23.5151 8.271H32.217V10.4242H23.5151V8.271Z" fill="#878787"/>
</g>
<defs>
<clipPath id="clip0_73_113">
<rect width="35" height="36" fill="white" transform="translate(0.666672)"/>
</clipPath>
</defs>
</svg>
