<svg width="27" height="28" viewBox="0 0 27 28" fill="none" xmlns="http://www.w3.org/2000/svg">
<g clip-path="url(#clip0_73_115)">
<path d="M26.9997 13.9411C26.9997 6.31934 21.0297 0.141052 13.6664 0.141052C6.29972 0.142767 0.329721 6.31934 0.329721 13.9428C0.329721 20.8291 5.20639 26.5376 11.5797 27.5731V17.9302H8.19639V13.9428H11.5831V10.8999C11.5831 7.4422 13.5747 5.53248 16.6197 5.53248C18.0797 5.53248 19.6047 5.80162 19.6047 5.80162V9.19591H17.9231C16.2681 9.19591 15.7514 10.2605 15.7514 11.3525V13.9411H19.4481L18.8581 17.9285H15.7497V27.5713C22.1231 26.5359 26.9997 20.8273 26.9997 13.9411Z" fill="#878787"/>
</g>
<defs>
<clipPath id="clip0_73_115">
<rect width="26.6667" height="27.4286" fill="white" transform="translate(0.333328 0.142883)"/>
</clipPath>
</defs>
</svg>
