<svg width="27" height="26" viewBox="0 0 27 26" fill="none" xmlns="http://www.w3.org/2000/svg">
<g clip-path="url(#clip0_73_111)">
<path d="M13.3333 0.142883C9.715 0.142883 9.26 0.158955 7.83833 0.220026C6.41667 0.284312 5.44833 0.499669 4.6 0.817883C3.70974 1.13984 2.90357 1.6462 2.23833 2.30128C1.559 2.94275 1.03388 3.72013 0.7 4.5786C0.37 5.39503 0.145 6.33038 0.08 7.69645C0.0166667 9.07056 0 9.50771 0 13.0016C0 16.4923 0.0166667 16.9295 0.08 18.3004C0.146667 19.6697 0.37 20.6034 0.7 21.4215C1.04167 22.2668 1.49667 22.9836 2.23833 23.6988C2.97833 24.414 3.72167 24.8543 4.59833 25.1822C5.44833 25.5004 6.415 25.7173 7.835 25.78C9.25833 25.8411 9.71167 25.8572 13.3333 25.8572C16.955 25.8572 17.4067 25.8411 18.83 25.78C20.2483 25.7157 21.22 25.5004 22.0683 25.1822C22.958 24.86 23.7636 24.3537 24.4283 23.6988C25.17 22.9836 25.625 22.2668 25.9667 21.4215C26.295 20.6034 26.52 19.6697 26.5867 18.3004C26.65 16.9295 26.6667 16.4923 26.6667 13C26.6667 9.5077 26.65 9.07056 26.5867 7.69806C26.52 6.33038 26.295 5.39503 25.9667 4.5786C25.6328 3.72013 25.1077 2.94275 24.4283 2.30128C23.7631 1.6462 22.9569 1.13984 22.0667 0.817883C21.2167 0.499669 20.2467 0.282705 18.8283 0.220026C17.405 0.158955 16.9533 0.142883 13.33 0.142883H13.3333ZM12.1383 2.46038H13.335C16.895 2.46038 17.3167 2.47163 18.7217 2.53431C20.0217 2.59056 20.7283 2.8011 21.1983 2.97628C21.82 3.20931 22.265 3.48895 22.7317 3.93895C23.1983 4.38895 23.4867 4.81645 23.7283 5.41753C23.9117 5.86913 24.1283 6.55056 24.1867 7.80413C24.2517 9.15895 24.265 9.56556 24.265 12.9968C24.265 16.4281 24.2517 16.8363 24.1867 18.1911C24.1283 19.4447 23.91 20.1245 23.7283 20.5777C23.5131 21.1352 23.1721 21.6397 22.73 22.0547C22.2633 22.5047 21.82 22.7827 21.1967 23.0157C20.73 23.1925 20.0233 23.4015 18.7217 23.4593C17.3167 23.5204 16.895 23.5348 13.335 23.5348C9.775 23.5348 9.35167 23.5204 7.94667 23.4593C6.64667 23.4015 5.94167 23.1925 5.47167 23.0157C4.89305 22.8088 4.36933 22.4806 3.93833 22.0547C3.49546 21.6394 3.15388 21.1343 2.93833 20.5761C2.75667 20.1245 2.53833 19.4431 2.48 18.1895C2.41667 16.8347 2.40333 16.4281 2.40333 12.9936C2.40333 9.55913 2.41667 9.15574 2.48 7.80092C2.54 6.54735 2.75667 5.86592 2.94 5.4127C3.18167 4.81324 3.47167 4.38413 3.93833 3.93413C4.405 3.48413 4.84833 3.2061 5.47167 2.97306C5.94167 2.79628 6.64667 2.58735 7.94667 2.52949C9.17667 2.47485 9.65333 2.45878 12.1383 2.45717V2.46038ZM20.4517 4.59467C20.2416 4.59467 20.0335 4.63458 19.8394 4.71211C19.6453 4.78965 19.4689 4.90329 19.3203 5.04656C19.1717 5.18983 19.0539 5.35991 18.9735 5.5471C18.8931 5.73429 18.8517 5.93492 18.8517 6.13753C18.8517 6.34014 18.8931 6.54076 18.9735 6.72795C19.0539 6.91514 19.1717 7.08522 19.3203 7.22849C19.4689 7.37176 19.6453 7.4854 19.8394 7.56294C20.0335 7.64048 20.2416 7.68038 20.4517 7.68038C20.876 7.68038 21.283 7.51783 21.583 7.22849C21.8831 6.93915 22.0517 6.54672 22.0517 6.13753C22.0517 5.72833 21.8831 5.3359 21.583 5.04656C21.283 4.75722 20.876 4.59467 20.4517 4.59467ZM13.335 6.39788C12.4268 6.38422 11.5248 6.54491 10.6816 6.87061C9.83844 7.19631 9.07086 7.6805 8.42358 8.29499C7.77631 8.90949 7.26227 9.64201 6.9114 10.4499C6.56053 11.2578 6.37983 12.1249 6.37983 13.0008C6.37983 13.8767 6.56053 14.7439 6.9114 15.5518C7.26227 16.3597 7.77631 17.0922 8.42358 17.7067C9.07086 18.3212 9.83844 18.8054 10.6816 19.131C11.5248 19.4567 12.4268 19.6174 13.335 19.6038C15.1326 19.5767 16.847 18.8692 18.1083 17.6338C19.3696 16.3985 20.0765 14.7344 20.0765 13.0008C20.0765 11.2672 19.3696 9.60319 18.1083 8.36784C16.847 7.13249 15.1326 6.42493 13.335 6.39788ZM13.335 8.71378C13.9187 8.71378 14.4967 8.82464 15.036 9.04005C15.5753 9.25545 16.0653 9.57117 16.4781 9.96919C16.8908 10.3672 17.2183 10.8397 17.4416 11.3597C17.665 11.8798 17.78 12.4371 17.78 13C17.78 13.5629 17.665 14.1203 17.4416 14.6403C17.2183 15.1603 16.8908 15.6328 16.4781 16.0309C16.0653 16.4289 15.5753 16.7446 15.036 16.96C14.4967 17.1754 13.9187 17.2863 13.335 17.2863C12.1561 17.2863 11.0255 16.8347 10.1919 16.0309C9.35831 15.227 8.89 14.1368 8.89 13C8.89 11.8632 9.35831 10.773 10.1919 9.96919C11.0255 9.16536 12.1561 8.71378 13.335 8.71378Z" fill="#878787"/>
</g>
<defs>
<clipPath id="clip0_73_111">
<rect width="26.6667" height="25.7143" fill="white" transform="translate(0 0.142883)"/>
</clipPath>
</defs>
</svg>
